<?xml version="1.0" encoding="UTF-8"?>
<!-- Generator: Adobe Illustrator 25.4.1, SVG Export Plug-In . SVG Version: 6.00 Build 0)  -->
<svg version="1.1" id="Шар_1" xmlns="http://www.w3.org/2000/svg" xmlns:xlink="http://www.w3.org/1999/xlink" x="0px" y="0px" viewBox="0 0 822 370" style="enable-background:new 0 0 822 370;" xml:space="preserve">
<style type="text/css">
	.st0{fill:#FF4C98;}
</style>
<g>
	<path class="st0" d="M212.26,226.11h-31.14V370h99.69v-26.97h-68.55V226.11z"/>
	<path class="st0" d="M608,308.82h60.66v-25.76H608v-31.19h68.35v-25.76h-99.49V370h103.33v-25.76H608V308.82z"/>
	<path class="st0" d="M0.03,272.93h29.93V370H0.03V272.93z M0,226.11h29.96v24.57H0V226.11z"/>
	<path class="st0" d="M147.15,238.39c-9.98-8.19-24.26-12.28-42.87-12.28H52.31V370h30.74v-49.1h21.03c12.4,0,22.92-1.85,31.54-5.54   c8.63-3.69,15.2-9.05,19.72-16.1c4.52-7.04,6.77-15.59,6.77-25.66C162.11,258.31,157.13,246.57,147.15,238.39z M123.39,291.01   c-4.79,3.69-11.76,5.53-20.93,5.53H83.05v-46.08h19.61c9.03,0,15.94,1.88,20.73,5.63c4.78,3.76,7.18,9.6,7.18,17.51   C130.57,281.52,128.17,287.32,123.39,291.01z"/>
	<path class="st0" d="M212.26,226.11h-31.14V370h99.69v-26.97h-68.55V226.11z"/>
	<path class="st0" d="M493.43,296.64c-5.94-10.33-29.26-59.93-34.78-70.53h-35.39l54.19,97.41V370h31.14v-46.48l54.4-97.41h-34.58   C522.75,236.71,499.49,286.17,493.43,296.64z"/>
	<path class="st0" d="M385.9,226.11h-33.57c-9.7,22.67-19.31,46.02-28.81,70.03c-9.51,24.02-18.84,48.64-28.01,73.86h33.36   c3.51-10.47,7.01-20.86,10.52-31.19h58.64c3.51,10.19,7.01,20.59,10.52,31.19h34.17c-8.9-23.88-18.1-47.86-27.6-71.94   C405.62,273.97,395.87,249.99,385.9,226.11z M348.29,313.05c6.6-18.65,13.41-37.16,20.42-55.55c3.37,8.99,6.78,18.15,10.21,27.47   c3.44,9.33,6.78,18.69,10.01,28.08H348.29z"/>
	<path class="st0" d="M804.21,340.52c-5.94-9.59-11.93-19.15-18-28.68c8.36-3.62,14.79-8.79,19.31-15.5   c4.51-6.7,6.77-14.82,6.77-24.35c0-14.75-5.09-26.09-15.26-34.01c-10.18-7.91-24.77-11.87-43.78-11.87h-52.78V370h30.74v-52.32   h21.84c0.94,0,1.95,0,3.03,0c10.38,17.17,20.42,34.61,30.13,52.32H822C816.07,359.94,810.14,350.11,804.21,340.52z M773.27,288.19   c-4.99,3.43-12.27,5.14-21.84,5.14h-20.22v-42.87h20.42c9.57,0,16.82,1.75,21.74,5.23c4.92,3.5,7.38,8.93,7.38,16.31   C780.75,279.37,778.25,284.77,773.27,288.19z"/>
	<path class="st0" d="M212.26,226.11h-31.14V370h99.69v-26.97h-68.55V226.11z"/>
</g>
<path d="M122.14,0v164.44h165.24V0H122.14z M237.37,116.05c-2.82,3.97-6.85,7.03-12.07,9.19c-5.22,2.16-11.5,3.23-18.83,3.23h-37.03  v-92.5h34.88c10.28,0,18.24,2.05,23.89,6.15c5.64,4.09,8.47,9.98,8.47,17.66c0,4.39-1.01,8.21-3.04,11.44  c-2.02,3.24-5.01,5.81-8.97,7.7c5.48,1.81,9.67,4.68,12.57,8.61c2.91,3.92,4.36,8.69,4.36,14.29  C241.61,107.34,240.19,112.09,237.37,116.05z M213.74,70.84c2.57-2.12,3.85-5.07,3.85-8.86c0-7.33-5.01-11-15.04-11h-14.28v23.03  h14.28C207.44,74.01,211.17,72.95,213.74,70.84z M204.95,88.5h-16.68v24.96h16.43c5.65,0,9.99-1.05,13.02-3.17  c3.03-2.11,4.55-5.15,4.55-9.12C222.27,92.72,216.5,88.5,204.95,88.5z M328.69,0v164.44h165.24V0H328.69z M443.92,116.05  c-2.83,3.97-6.85,7.03-12.07,9.19c-5.23,2.16-11.5,3.23-18.83,3.23h-37.03v-92.5h34.88c10.28,0,18.24,2.05,23.89,6.15  c5.64,4.09,8.46,9.98,8.46,17.66c0,4.39-1.01,8.21-3.03,11.44c-2.02,3.24-5.01,5.81-8.97,7.7c5.47,1.81,9.67,4.68,12.57,8.61  c2.91,3.92,4.36,8.69,4.36,14.29C448.15,107.34,446.74,112.09,443.92,116.05z M420.28,70.84c2.57-2.12,3.86-5.07,3.86-8.86  c0-7.33-5.01-11-15.04-11h-14.28v23.03h14.28C413.99,74.01,417.71,72.95,420.28,70.84z M411.5,88.5h-16.68v24.96h16.43  c5.64,0,9.98-1.05,13.02-3.17c3.03-2.11,4.55-5.15,4.55-9.12C428.82,92.72,423.04,88.5,411.5,88.5z M535.24,164.44h165.23V0H535.24  V164.44z M653.91,122.61c-3.85,2.11-8.31,3.78-13.38,5.01c-5.08,1.22-10.41,1.84-16.01,1.84c-7.43,0-14.12-1.08-20.07-3.24  c-5.95-2.15-10.98-5.26-15.09-9.32s-7.26-9.02-9.44-14.9c-2.19-5.87-3.28-12.49-3.28-19.84c0-7.19,1.13-13.67,3.41-19.47  c2.27-5.79,5.55-10.75,9.84-14.9c4.28-4.14,9.42-7.31,15.41-9.51c5.99-2.19,12.71-3.29,20.14-3.29c5.16,0,10.04,0.53,14.63,1.58  c4.59,1.06,8.86,2.6,12.79,4.63v18c-3.59-2.36-7.48-4.16-11.68-5.38c-4.19-1.23-8.61-1.84-13.25-1.84c-6.38,0-11.83,1.18-16.33,3.55  c-4.5,2.36-7.96,5.79-10.36,10.27c-2.41,4.48-3.61,9.93-3.61,16.36c0,6.42,1.16,11.89,3.48,16.42c2.31,4.52,5.68,7.97,10.1,10.33  c4.41,2.37,9.77,3.55,16.07,3.55c9.62,0,18.5-2.49,26.63-7.48V122.61L653.91,122.61z"/>
</svg>