<?xml version="1.0" encoding="utf-8"?>
<!-- Generator: Adobe Illustrator 19.2.1, SVG Export Plug-In . SVG Version: 6.00 Build 0)  -->
<svg version="1.1" id="layer" xmlns="http://www.w3.org/2000/svg" xmlns:xlink="http://www.w3.org/1999/xlink" x="0px" y="0px"
	 viewBox="0 0 652 652" style="enable-background:new 0 0 652 652;" xml:space="preserve">
<style type="text/css">
	.st0{fill:#142524;}
</style>
<path class="st0" d="M286,365c-24.3,0-44-19.7-44-44.1c0-24.3,19.7-44.1,44-44.1c24.3,0,44,19.7,44,44.1
	C330,345.3,310.3,365,286,365 M606.1,235.5c-14.1-7.1-31.4-1.3-38.4,13l-30.4,61.3l-19.7-58l0,0c-3.9-11.3-14.6-19.3-27.1-19.3
	c-10,0-18.8,5.1-23.9,12.9l0,0l-39.3,60.4l-7-48.9c-2.4-15.7-17-26.5-32.6-24.1c-15.6,2.4-26.3,16.9-23.9,32.6l1.2,8.2
	c-16.1-26.9-45.4-44.9-78.9-44.9c-33.8,0-63.4,18.3-79.4,45.6l1.7-8.6c3.1-15-6.6-29.7-21.6-32.7c-15-3.1-29.6,6.6-32.7,21.6
	l-11.9,58.5l-43.8-67.9c-5-7.6-13.5-12.6-23.2-12.6c-13.3,0-24.4,9.4-27.1,22L22.5,379.8c-3.1,15,6.4,29.6,21.4,32.8
	c1.9,0.4,3.9,0.6,5.7,0.6c12.8,0.1,24.4-8.9,27.1-22.3l11.9-58.5c0,0,43,66.8,43,66.9c0,0,1,1.6,1.5,2.2
	c4.9,6.9,13.2,11.7,22.5,11.7c13.7,0,25-10,27.3-23l11.7-57.6c5.7,45.4,44.4,80.5,91.2,80.5c43.1,0,79.3-29.8,89.3-69.9l6.5,44
	c1.8,14.5,13.7,25.9,28.5,25.9c10.7,0,19.4-6.1,24.9-14.6l47.1-72.4l22.6,66.6c4.1,11.9,14.5,20.3,27.4,20.3
	c12,0,21.4-7.2,26.5-17.9l60-121.1C626,259.9,620.3,242.7,606.1,235.5"/>
</svg>
